<?xml version="1.0" encoding="utf-8"?>
<!-- Generator: Adobe Illustrator 18.0.0, SVG Export Plug-In . SVG Version: 6.00 Build 0)  -->
<!DOCTYPE svg PUBLIC "-//W3C//DTD SVG 1.1//EN" "http://www.w3.org/Graphics/SVG/1.1/DTD/svg11.dtd">
<svg version="1.1" id="Layer_1" xmlns="http://www.w3.org/2000/svg" xmlns:xlink="http://www.w3.org/1999/xlink" x="0px" y="0px"
	 viewBox="0 0 160 160" enable-background="new 0 0 160 160" xml:space="preserve">
<g id="Layer_1_1_" display="none">
</g>
<g id="Layer_2">
	<g>
		<g>
			<path fill="#FF3F4C" d="M116.6,108.9c0.5,0.5,1.8,1.7,2.5,1s1.6-2,1.6-2.9s0.7-6.3,1.3-7.8c0.7-1.5,1.3-9.4,0.8-11.1
				s-7,7.9-7,7.9L116.6,108.9z"/>
			<path fill="#FF3F4C" d="M43.4,108.9c-0.5,0.5-1.8,1.7-2.5,1s-1.6-2-1.6-2.9s-0.7-6.3-1.3-7.8c-0.7-1.5-1.3-9.4-0.8-11.1
				s7,7.9,7,7.9L43.4,108.9z"/>
		</g>
		<g>
			<path fill="#FF3F4C" d="M121.5,64.7c0,0-0.3,3-0.7,7.4c0,0,0,0,0,0.1c-1.1,12.4-3.4,36.2-4.7,40.8c-1.7,6.3-9.2,17.1-10.7,20.2
				c-5.3,12.7-13.8,17.2-25.4,17.3h0c-11.7,0-20.1-4.6-25.4-17.3c-1.4-3.1-9-13.9-10.7-20.2c-1.2-4.6-3.5-28.5-4.7-40.8
				c0,0,0,0,0-0.1c-0.4-4.5-0.7-7.4-0.7-7.4c0-22.9,18.6-41.5,41.4-41.5H80C103,23.2,121.5,41.8,121.5,64.7z"/>
		</g>
		<path fill="#353531" d="M88.2,72.6c-1.2-1,0.3-3.8,2.1-4.7c1.8-0.9,13.5-1.1,16.7-2c3.2-0.9,6.6,4.3,6.7,5.1
			c0.1,0.7-0.5-0.1-3.2-1C107.7,69.1,89.1,73.4,88.2,72.6z"/>
		<path fill="#353531" d="M71.8,72.6c1.2-1-0.3-3.8-2.1-4.7c-1.8-0.9-13.5-1.1-16.7-2s-6.6,4.3-6.7,5.1c-0.1,0.7,0.5-0.1,3.2-1
			S70.9,73.4,71.8,72.6z"/>
		<path fill="#353531" d="M80,34.2c-2.5,0-3.2-1.7-7.6-1.7S52,39.4,50.2,42.9s-1.8,8.5-6.5,12.2s-0.5,12-1.2,14.4s-1.1,4.9-1.1,4.9
			l0.1,21.4c0,0-1.9-2.5-3-3.6c-1-1-8.3-23.8-10.2-33.4l-1.4,1l1-4.3c0-4.4,3.7-12.7,7-16.9l-1.6-0.9l4.2-1.5c3-1.3,3.9-1.1,4-1
			c-0.2-0.2-2.5-2.3-1-8.7c1.6-6.7,11.5-15.3,18-17.7l4.9-2.7V8c10.1-0.4,29.4,2.5,35.1,6.2c6.9,4.5,14.9,11,21.1,15l5.7,2.3
			l-2.7,0.7c4.7,6.3,8.3,18.4,9.2,23.1l1.3,4.3l-1.8-0.5c-2,9.9-9.2,32-10.1,32.9c-1.1,1.1-3,3.6-3,3.6l0.4-21.4
			c0,0-0.4-2.5-1.1-4.9s3.6-10.8-1.2-14.4s-4.7-8.7-6.5-12.2S92,32.5,87.6,32.5S82.5,34.2,80,34.2"/>
		<g>
			<g>
				<path fill="#F5F7F5" d="M93.2,118.7c0,0-2.3,2.8-4.9,3.9s-8.2,1.5-8.2,1.5s-5.7-0.4-8.2-1.5c-2.6-1.1-4.9-3.9-4.9-3.9
					c1.6,0.7,4.9,1.3,5.6,1.3c0.9,0,5.9,0.4,7.6,0.4l0,0c1.7,0,6.8-0.4,7.6-0.4C88.3,120,91.6,119.4,93.2,118.7z"/>
			</g>
		</g>
		<g>
			<g>
				<path fill="#353531" d="M118.7,86.1c-0.5,0.5-0.7,1.9-1,3.5l0,0c0,4-0.8,14.3-3,16.5c-1,1-2.2,1.7-3.4,2.6l0,0
					c-1.3,1-2.6,2.1-3.8,4.2c-2.2,4-4,11.5-5.7,9.8s0.4-5.2-2.7-8.3c-3.2-3.2-14.6-5-14.6-5c-0.2,0.2-0.4,0.3-0.7,0.5
					c-0.9,0.6-2,1-3.5,1s-2.7-0.4-3.6-1c-0.2-0.2-0.4-0.3-0.7-0.5c0,0-11.5,1.8-14.6,5s-1,6.6-2.7,8.3c-1.7,1.7-3.4-5.8-5.7-9.8
					c-1.2-2.1-2.5-3.3-3.8-4.2l0,0c-1.2-0.9-2.3-1.5-3.4-2.6c-2.2-2.2-3-12.5-3-16.5l0,0c-0.4-1.7-0.5-3-1-3.5
					c-0.4-0.4-0.8-0.7-1.3-1.1c1.2,11.7,2.6,24.7,3.4,28c1.7,6.3,8.5,16.1,9.9,19.2c5.3,12.7,16,22.3,26.2,22.3s20.9-9.6,26.2-22.3
					c1.4-3.1,8.3-12.9,9.9-19.2c0.9-3.3,2.3-16.3,3.4-28C119.5,85.4,119.1,85.8,118.7,86.1z M94.9,134.2c0,1.7-4.1,5.8-6.9,6.5
					s-4.8,0-4.8-2s6.8-6.2,6.8-7.3c0-1.2-5-2.2-5-2.2s-3.5,0.7-4.7,0.7s-4.7-0.7-4.7-0.7s-5,1-5,2.2s6.8,5.3,6.8,7.3s-2,2.7-4.8,2
					s-6.9-4.8-6.9-6.5s-4.8-3.8-4.8-6.3s2.2-7.6,3.7-9c1.4-1.4,6.8-0.8,8.1-0.8s7.6,0.5,7.6,0.5s6.4-0.5,7.6-0.5s6.7-0.6,8.1,0.8
					s3.7,6.5,3.7,9S94.9,132.5,94.9,134.2z"/>
			</g>
		</g>
		<g>
			<path fill="#353531" d="M91.6,104.4c0,0,0-0.1,0-0.3c0-0.1,0-0.1,0-0.2s-0.1-0.2-0.1-0.3c-0.2-0.5-0.6-1.1-1-1.8
				c-0.4-0.7-0.8-1.3-1-1.9c-0.1-0.3-0.1-0.5-0.1-0.7s0-0.3,0-0.3s0,0.1,0,0.3c0,0.2,0.1,0.4,0.2,0.7c0.2,0.5,0.7,1.1,1.3,1.7
				c0.5,0.6,1.1,1.2,1.4,1.7c0.1,0.2,0.2,0.3,0.2,0.4c0.1,0.1,0.1,0.3,0.1,0.4c0,0.2,0,0.3,0,0.3L91.6,104.4z"/>
		</g>
		<path fill="none" stroke="#353531" stroke-linejoin="round" stroke-miterlimit="10" d="M67.9,104.4c0,1.6,1.3,3.6,1.3,3.6
			s3.6-1.4,5,0s2.8,3,5.8,3l0,0c3.1,0,4.5-1.6,5.8-3s5,0,5,0s1.3-2,1.3-3.6"/>
		<g>
			<path fill="#353531" d="M70.7,99c0,0,0,0.1,0,0.3c0,0.2,0,0.4-0.1,0.7c-0.2,0.6-0.6,1.3-1,1.9c-0.4,0.7-0.8,1.3-1,1.8
				c-0.1,0.2-0.1,0.4-0.1,0.6c0,0.1,0,0.2,0,0.2h-1c0,0,0-0.1,0.1-0.3c0.1-0.2,0.2-0.5,0.3-0.8c0.3-0.6,0.9-1.1,1.4-1.7
				s1-1.2,1.3-1.7c0.1-0.3,0.2-0.5,0.2-0.6C70.7,99.1,70.7,99,70.7,99z"/>
		</g>
		<g>
			<path fill="#F5F7F5" d="M107.6,78.6c0.2,0.1,0.2,0.4,0,0.5c-1,0.8-4.3,3.2-8.3,3.2c-3.4,0-6.4-1.8-7.7-2.8c-0.5-0.3-0.5-1,0-1.3
				c1.4-1,4.3-2.8,7.7-2.8C103.3,75.4,106.6,77.8,107.6,78.6z"/>
			<path fill="#353531" d="M103.8,77.6c0,2.5-2,4.5-4.5,4.5s-4.5-2-4.5-4.5c0-0.4,0.1-0.9,0.2-1.3c1.3-0.5,2.7-0.9,4.3-0.9
				c1.6,0,3,0.4,4.3,0.9C103.7,76.7,103.8,77.1,103.8,77.6z"/>
			<path fill="#F5F7F5" d="M53,78.6c-0.2,0.1-0.2,0.4,0,0.5c1,0.8,4.3,3.2,8.3,3.2c3.4,0,6.4-1.8,7.7-2.8c0.5-0.3,0.5-1,0-1.3
				c-1.4-1-4.3-2.8-7.7-2.8C57.3,75.4,54,77.8,53,78.6z"/>
			<path fill="#353531" d="M56.8,77.6c0,2.5,2,4.5,4.5,4.5s4.5-2,4.5-4.5c0-0.4-0.1-0.9-0.2-1.3c-1.3-0.5-2.7-0.9-4.3-0.9
				s-3,0.4-4.3,0.9C56.8,76.7,56.8,77.1,56.8,77.6z"/>
		</g>
		<g>
			<path fill="#353531" d="M106.1,72.9c-2.5,0-11.5,0-13.9,0.6s-8.9,1.9-12.1,1.9s-9.7-1.3-12.1-1.9s-11.4-0.6-13.9-0.6
				s-15.4,1.9-15.4,1.9v8.9c0,0,2,1.4,3.2,2.5c1.1,1.1,0.5,6.2,4,9.7s20.4,2.1,23,1s4-4.8,4.8-6.9s2.4-7.4,3.5-8.5s2-1.4,3.1-1.4
				s2,0.3,3.1,1.4s2.8,6.4,3.5,8.5c0.8,2.1,2.1,5.7,4.8,6.9s19.5,2.5,23-1s2.8-8.5,4-9.7c1.1-1.1,3.2-2.5,3.2-2.5v-8.9
				C121.5,74.8,108.6,72.9,106.1,72.9z M73.7,84.3c-0.6,2.9-1.6,6.4-3.4,9.2c-1.8,2.9-3.8,2.8-7.5,3.2c-3.8,0.4-12.1,0.1-14.2-0.9
				s-3.4-3.2-4.2-5.6s-2.3-8.8-1.1-11.2c1.2-2.4,5.7-3.1,10.3-3.8c4.6-0.6,12.3-0.3,14.4,0s5.7,1.4,6.1,2.9
				C74.2,79.1,74.3,81.4,73.7,84.3z M115.7,90.2c-0.8,2.4-2,4.6-4.2,5.6s-10.5,1.3-14.2,0.9c-3.8-0.4-5.7-0.3-7.5-3.2
				c-1.8-2.9-2.8-6.4-3.4-9.2s-0.5-5.2-0.3-6.1c0.4-1.4,4-2.6,6.1-2.9s9.8-0.6,14.4,0s9.1,1.4,10.3,3.8S116.5,87.8,115.7,90.2z"/>
		</g>
	</g>
</g>
</svg>
